<?xml version="1.0" encoding="UTF-8" standalone="no"?>
<!DOCTYPE svg PUBLIC "-//W3C//DTD SVG 1.1//EN" "http://www.w3.org/Graphics/SVG/1.1/DTD/svg11.dtd">
<svg width="100%" height="100%" viewBox="0 0 448 512" version="1.1" xmlns="http://www.w3.org/2000/svg" xmlns:xlink="http://www.w3.org/1999/xlink" xml:space="preserve" xmlns:serif="http://www.serif.com/" style="fill-rule:evenodd;clip-rule:evenodd;stroke-linejoin:round;stroke-miterlimit:2;">
    <path d="M400,224L376,224L376,152C376,68.2 307.8,0 224,0C140.2,0 72,68.2 72,152L72,224L48,224C21.5,224 0,245.5 0,272L0,464C0,490.5 21.5,512 48,512L400,512C426.5,512 448,490.5 448,464L448,272C448,245.5 426.5,224 400,224ZM296,224L152,224L152,152C152,112.3 184.3,80 224,80C263.7,80 296,112.3 296,152L296,224Z" style="fill:rgb(0,192,56);fill-rule:nonzero;"/>
</svg>
