<svg width="512" height="512" xmlns="http://www.w3.org/2000/svg" xmlns:xlink="http://www.w3.org/1999/xlink"><defs><filter x="-4.6%" y="-3.4%" width="109.2%" height="109.2%" filterUnits="objectBoundingBox" id="b"><feOffset dy="5" in="SourceAlpha" result="shadowOffsetOuter1"/><feGaussianBlur stdDeviation="5.5" in="shadowOffsetOuter1" result="shadowBlurOuter1"/><feColorMatrix values="0 0 0 0 0 0 0 0 0 0 0 0 0 0 0 0 0 0 0.26 0" in="shadowBlurOuter1"/></filter><filter x="-8.6%" y="-11%" width="117.1%" height="121.9%" filterUnits="objectBoundingBox" id="d"><feOffset dx="1" dy="2" in="SourceAlpha" result="shadowOffsetOuter1"/><feGaussianBlur stdDeviation="6.5" in="shadowOffsetOuter1" result="shadowBlurOuter1"/><feColorMatrix values="0 0 0 0 0 0 0 0 0 0 0 0 0 0 0 0 0 0 0.372049825 0" in="shadowBlurOuter1" result="shadowMatrixOuter1"/><feMerge><feMergeNode in="shadowMatrixOuter1"/><feMergeNode in="SourceGraphic"/></feMerge></filter><linearGradient x1="50.023%" y1="-15.482%" x2="50.023%" y2="104.493%" id="e"><stop stop-color="#51C2FB" offset=".053%"/><stop stop-color="#1C91FE" offset="100%"/></linearGradient><path d="M167.939 50H344.06c41.01 0 55.881 4.27 70.874 12.288 14.992 8.018 26.759 19.785 34.777 34.777C457.73 112.058 462 126.93 462 167.94V344.06c0 41.01-4.27 55.881-12.288 70.874-8.018 14.992-19.785 26.759-34.777 34.777C399.942 457.73 385.07 462 344.06 462H167.94c-41.01 0-55.881-4.27-70.874-12.288-14.992-8.018-26.759-19.785-34.777-34.777C54.27 399.942 50 385.07 50 344.06V167.94c0-41.01 4.27-55.881 12.288-70.874 8.018-14.992 19.785-26.759 34.777-34.777C112.058 54.27 126.93 50 167.94 50z" id="a"/></defs><g fill="none" fill-rule="evenodd"><mask id="c" fill="#fff"><use xlink:href="#a"/></mask><use filter="url(#b)" xlink:href="#a" fill-rule="nonzero" fill="#000"/><g mask="url(#c)"><path fill="#FFF" d="M50 50h412v412H50z"/></g><g filter="url(#d)" mask="url(#c)"><path fill="#FFF" d="M131.535 155.144l63.377-8.907 33.68 239.645-63.377 8.907zM315.79 263.497l63.377-8.907 15.17 107.94-63.377 8.906z"/><path fill="#FFF" d="M315.79 263.497l63.377-8.907 15.17 107.94-63.377 8.906z"/><path fill="#FFF" d="M316.01 173.224l84.001 68.319-53.919 66.92-84-68.318z"/><path fill="#FFF" d="M93.155 157.813l164.384-23.102 21.433 152.5-164.385 23.104z"/><path d="M133.3 83.75h-12.9V54.437c0-2.303-1.935-4.187-4.3-4.187h-8.6c-2.365 0-4.3 1.884-4.3 4.188v41.874c0 2.304 1.935 4.188 4.3 4.188h25.8c2.365 0 4.3-1.884 4.3-4.188v-8.374c0-2.304-1.935-4.188-4.3-4.188zm202.1 100.5h-8.6v-56.584c0-6.647-2.741-13.033-7.579-17.744L265.525 57.63c-4.837-4.71-11.395-7.38-18.221-7.38H223.6V25.125C223.6 11.254 212.044 0 197.8 0h-172C11.556 0 0 11.254 0 25.125v167.5c0 13.871 11.556 25.125 25.8 25.125h8.6C34.4 245.492 57.513 268 86 268c28.487 0 51.6-22.508 51.6-50.25h68.8c0 27.742 23.112 50.25 51.6 50.25 28.488 0 51.6-22.508 51.6-50.25h25.8c4.73 0 8.6-3.769 8.6-8.375v-16.75c0-4.606-3.87-8.375-8.6-8.375zM86 242.875c-14.244 0-25.8-11.254-25.8-25.125s11.556-25.125 25.8-25.125c14.244 0 25.8 11.254 25.8 25.125s-11.556 25.125-25.8 25.125zm25.8-92.125c-33.271 0-60.2-26.224-60.2-58.625 0-32.4 26.929-58.625 60.2-58.625S172 59.724 172 92.125c0 32.4-26.929 58.625-60.2 58.625zM258 242.875c-14.244 0-25.8-11.254-25.8-25.125s11.556-25.125 25.8-25.125c14.244 0 25.8 11.254 25.8 25.125s-11.556 25.125-25.8 25.125zM301 134h-77.4V75.375h23.704L301 127.666V134z" fill="url(#e)" fill-rule="nonzero" transform="rotate(-8 1129.292 -453.38)"/></g></g></svg>