<svg width="22" height="22" xmlns="http://www.w3.org/2000/svg"><path d="M8.975 8.375H8.3V6.844a.223.223 0 00-.225-.219h-.45a.223.223 0 00-.225.219V9.03c0 .12.101.219.225.219h1.35a.223.223 0 00.225-.219v-.437a.223.223 0 00-.225-.219zm10.575 5.25h-.45v-2.956c0-.347-.143-.68-.397-.927l-2.81-2.731a1.37 1.37 0 00-.953-.386H13.7V5.312C13.7 4.588 13.095 4 12.35 4h-9C2.605 4 2 4.588 2 5.313v8.75c0 .724.605 1.312 1.35 1.312h.45C3.8 16.825 5.01 18 6.5 18c1.49 0 2.7-1.176 2.7-2.625h3.6c0 1.45 1.21 2.625 2.7 2.625 1.49 0 2.7-1.176 2.7-2.625h1.35c.247 0 .45-.197.45-.438v-.874a.445.445 0 00-.45-.438zM6.5 16.688c-.745 0-1.35-.588-1.35-1.313s.605-1.313 1.35-1.313c.745 0 1.35.588 1.35 1.313s-.605 1.313-1.35 1.313zm1.35-4.813c-1.74 0-3.15-1.37-3.15-3.063C4.7 7.12 6.11 5.75 7.85 5.75S11 7.12 11 8.813c0 1.692-1.41 3.062-3.15 3.062zm7.65 4.813c-.745 0-1.35-.588-1.35-1.313s.605-1.313 1.35-1.313c.745 0 1.35.588 1.35 1.313s-.605 1.313-1.35 1.313zM17.75 11H13.7V7.937h1.24l2.81 2.732V11z" fill="#000" fill-rule="nonzero"/></svg>