<?xml version="1.0" encoding="UTF-8" standalone="no"?>
<!DOCTYPE svg PUBLIC "-//W3C//DTD SVG 1.1//EN" "http://www.w3.org/Graphics/SVG/1.1/DTD/svg11.dtd">
<svg width="100%" height="100%" viewBox="0 0 500 500" version="1.1" xmlns="http://www.w3.org/2000/svg" xmlns:xlink="http://www.w3.org/1999/xlink" xml:space="preserve" xmlns:serif="http://www.serif.com/" style="fill-rule:evenodd;clip-rule:evenodd;stroke-linejoin:round;stroke-miterlimit:2;">
    <g transform="matrix(1.25033,-0.175723,0.175723,1.25033,14.4412,107.226)">
        <path d="M133.3,83.75L120.4,83.75L120.4,54.437C120.4,52.134 118.465,50.25 116.1,50.25L107.5,50.25C105.135,50.25 103.2,52.134 103.2,54.438L103.2,96.312C103.2,98.616 105.135,100.5 107.5,100.5L133.3,100.5C135.665,100.5 137.6,98.616 137.6,96.312L137.6,87.938C137.6,85.634 135.665,83.75 133.3,83.75ZM335.4,184.25L326.8,184.25L326.8,127.666C326.8,121.019 324.059,114.633 319.221,109.922L265.525,57.63C260.688,52.92 254.13,50.25 247.304,50.25L223.6,50.25L223.6,25.125C223.6,11.254 212.044,0 197.8,0L25.8,0C11.556,0 0,11.254 0,25.125L0,192.625C0,206.496 11.556,217.75 25.8,217.75L34.4,217.75C34.4,245.492 57.513,268 86,268C114.487,268 137.6,245.492 137.6,217.75L206.4,217.75C206.4,245.492 229.512,268 258,268C286.488,268 309.6,245.492 309.6,217.75L335.4,217.75C340.13,217.75 344,213.981 344,209.375L344,192.625C344,188.019 340.13,184.25 335.4,184.25ZM86,242.875C71.756,242.875 60.2,231.621 60.2,217.75C60.2,203.879 71.756,192.625 86,192.625C100.244,192.625 111.8,203.879 111.8,217.75C111.8,231.621 100.244,242.875 86,242.875ZM111.8,150.75C78.529,150.75 51.6,124.526 51.6,92.125C51.6,59.725 78.529,33.5 111.8,33.5C145.071,33.5 172,59.724 172,92.125C172,124.525 145.071,150.75 111.8,150.75ZM258,242.875C243.756,242.875 232.2,231.621 232.2,217.75C232.2,203.879 243.756,192.625 258,192.625C272.244,192.625 283.8,203.879 283.8,217.75C283.8,231.621 272.244,242.875 258,242.875ZM301,134L223.6,134L223.6,75.375L247.304,75.375L301,127.666L301,134Z" style="fill:url(#_Linear1);fill-rule:nonzero;"/>
    </g>
    <defs>
        <linearGradient id="_Linear1" x1="0" y1="0" x2="1" y2="0" gradientUnits="userSpaceOnUse" gradientTransform="matrix(1.96882e-14,321.533,-321.533,1.96882e-14,172.079,-41.4918)"><stop offset="0" style="stop-color:rgb(81,194,251);stop-opacity:1"/><stop offset="0" style="stop-color:rgb(81,194,251);stop-opacity:1"/><stop offset="1" style="stop-color:rgb(28,145,254);stop-opacity:1"/></linearGradient>
    </defs>
</svg>
