<?xml version="1.0" encoding="UTF-8" standalone="no"?>
<!DOCTYPE svg PUBLIC "-//W3C//DTD SVG 1.1//EN" "http://www.w3.org/Graphics/SVG/1.1/DTD/svg11.dtd">
<svg width="100%" height="100%" viewBox="0 0 343 138" version="1.1" xmlns="http://www.w3.org/2000/svg" xmlns:xlink="http://www.w3.org/1999/xlink" xml:space="preserve" xmlns:serif="http://www.serif.com/" style="fill-rule:evenodd;clip-rule:evenodd;stroke-linejoin:round;stroke-miterlimit:2;">
    <g id="EAP-Pill" serif:id="EAP Pill" transform="matrix(0.989959,-5.55112e-17,5.55112e-17,1,-226.512,-352.307)">
        <g transform="matrix(1.49702,2.46519e-32,-4.1157e-17,1,-175.953,-20.6096)">
            <path d="M485.35,426.302L485.35,456.577C485.35,472.795 476.465,485.962 465.522,485.962L306.401,485.962C295.458,485.962 286.573,472.795 286.573,456.577L286.573,426.302C286.573,410.084 295.458,396.917 306.401,396.917L465.522,396.917C476.465,396.917 485.35,410.084 485.35,426.302Z" style="fill:url(#_Linear1);"/>
        </g>
        <g transform="matrix(1.49702,2.46519e-32,-4.1157e-17,1,-175.953,-20.6096)">
            <path d="M485.35,426.302L485.35,456.577C485.35,472.795 476.465,485.962 465.522,485.962L306.401,485.962C295.458,485.962 286.573,472.795 286.573,456.577L286.573,426.302C286.573,410.084 295.458,396.917 306.401,396.917L465.522,396.917C476.465,396.917 485.35,410.084 485.35,426.302Z" style="fill:url(#_Linear2);"/>
        </g>
        <g transform="matrix(0.811641,-6.24693e-17,-3.25779e-17,1,143.651,1.2882)">
            <g>
                <path d="M184.151,434.829L184.151,422.301L202.79,422.301L202.79,412.221L184.151,412.221L184.151,404.445L207.27,404.445L207.27,394.365L169.366,394.365L169.366,444.909L207.987,444.909L207.987,434.829L184.151,434.829Z" style="fill:white;fill-rule:nonzero;"/>
                <path d="M184.151,434.829L184.151,422.301L202.79,422.301L202.79,412.221L184.151,412.221L184.151,404.445L207.27,404.445L207.27,394.365L169.366,394.365L169.366,444.909L207.987,444.909L207.987,434.829L184.151,434.829Z" style="fill:white;fill-rule:nonzero;"/>
                <path d="M230.389,444.909L233.974,438.789L257.541,438.789L261.125,444.909L277.524,444.909L248.222,393.933L243.383,393.933L213.812,444.909L230.389,444.909ZM245.713,417.117L252.254,428.997L239.171,428.997L245.713,417.117Z" style="fill:white;fill-rule:nonzero;"/>
                <path d="M230.389,444.909L233.974,438.789L257.541,438.789L261.125,444.909L277.524,444.909L248.222,393.933L243.383,393.933L213.812,444.909L230.389,444.909ZM245.713,417.117L252.254,428.997L239.171,428.997L245.713,417.117Z" style="fill:white;fill-rule:nonzero;"/>
                <path d="M327.346,412.581C327.346,399.333 310.679,390.333 283.348,394.869L283.348,444.909L298.134,444.909L298.134,432.093C314.263,432.021 327.346,424.461 327.346,412.581ZM298.134,404.733C308.17,403.725 312.113,408.621 312.113,412.581C312.113,417.189 308.349,421.941 298.134,421.581L298.134,404.733Z" style="fill:white;fill-rule:nonzero;"/>
            </g>
            <path d="M327.346,412.581C327.346,399.333 310.679,390.333 283.348,394.869L283.348,444.909L298.134,444.909L298.134,432.093C314.263,432.021 327.346,424.461 327.346,412.581ZM298.134,404.733C308.17,403.725 312.113,408.621 312.113,412.581C312.113,417.189 308.349,421.941 298.134,421.581L298.134,404.733Z" style="fill:white;fill-rule:nonzero;"/>
        </g>
    </g>
    <defs>
        <linearGradient id="_Linear1" x1="0" y1="0" x2="1" y2="0" gradientUnits="userSpaceOnUse" gradientTransform="matrix(4.99972e-15,-81.6517,36.5774,2.23972e-15,387.828,484.137)"><stop offset="0" style="stop-color:rgb(240,21,150);stop-opacity:1"/><stop offset="1" style="stop-color:rgb(246,86,109);stop-opacity:1"/></linearGradient>
        <linearGradient id="_Linear2" x1="0" y1="0" x2="1" y2="0" gradientUnits="userSpaceOnUse" gradientTransform="matrix(4.99972e-15,-81.6517,36.5774,2.23972e-15,387.828,484.137)"><stop offset="0" style="stop-color:rgb(240,21,150);stop-opacity:1"/><stop offset="1" style="stop-color:rgb(246,86,109);stop-opacity:1"/></linearGradient>
    </defs>
</svg>
